name Walk2.mot
datacolumns 19
datarows 10
range 1.25300000 1.26200000
endheader

                time	   L_ground_force_vx	   L_ground_force_vy	   L_ground_force_vz	   L_ground_force_px	   L_ground_force_py	   L_ground_force_pz	   R_ground_force_vx	   R_ground_force_vy	   R_ground_force_vz	   R_ground_force_px	   R_ground_force_py	   R_ground_force_pz	   L_ground_torque_x	   L_ground_torque_y	   L_ground_torque_z	   R_ground_torque_x	   R_ground_torque_y	   R_ground_torque_z	
          1.25300000	          0.00000000	          0.00000000	          0.00000000	          0.00000000	          0.00000000	          0.00000000	        -26.35203322	        686.78022518	        -45.49445103	          0.12484596	          0.00000000	          0.08013404	          0.00000000	          0.00000000	          0.00000000	          0.00000000	         -0.25911297	          0.00000000	
          1.25400000	          0.00000000	          0.00000000	          0.00000000	          0.00000000	          0.00000000	          0.00000000	        -25.77092177	        684.63365860	        -45.57907002	          0.12538453	          0.00000000	          0.08013770	          0.00000000	          0.00000000	          0.00000000	          0.00000000	         -0.22520576	          0.00000000	
          1.25500000	          0.00000000	          0.00000000	          0.00000000	          0.00000000	          0.00000000	          0.00000000	        -25.18630998	        682.44857638	        -45.67984412	          0.12589704	          0.00000000	          0.08010753	          0.00000000	          0.00000000	          0.00000000	          0.00000000	         -0.18204345	          0.00000000	
          1.25600000	          0.00000000	          0.00000000	          0.00000000	          0.00000000	          0.00000000	          0.00000000	        -24.60637241	        680.25131047	        -45.79835718	          0.12636780	          0.00000000	          0.08005638	          0.00000000	          0.00000000	          0.00000000	          0.00000000	         -0.12417236	          0.00000000	
          1.25700000	          0.00000000	          0.00000000	          0.00000000	          0.00000000	          0.00000000	          0.00000000	        -24.04249100	        678.08802245	        -45.92155797	          0.12681121	          0.00000000	          0.08001193	          0.00000000	          0.00000000	          0.00000000	          0.00000000	         -0.05651286	          0.00000000	
          1.25800000	          0.00000000	          0.00000000	          0.00000000	          0.00000000	          0.00000000	          0.00000000	        -23.50358212	        676.00466261	        -46.02943251	          0.12724241	          0.00000000	          0.07999309	          0.00000000	          0.00000000	          0.00000000	          0.00000000	          0.00843775	          0.00000000	
          1.25900000	          0.00000000	          0.00000000	          0.00000000	          0.00000000	          0.00000000	          0.00000000	        -22.99237999	        674.04796842	        -46.10383481	          0.12767675	          0.00000000	          0.08000477	          0.00000000	          0.00000000	          0.00000000	          0.00000000	          0.06125138	          0.00000000	
          1.26000000	          0.00000000	          0.00000000	          0.00000000	          0.00000000	          0.00000000	          0.00000000	        -22.50700186	        672.25665211	        -46.13299998	          0.12814830	          0.00000000	          0.08004936	          0.00000000	          0.00000000	          0.00000000	          0.00000000	          0.09926524	          0.00000000	
          1.26100000	          0.00000000	          0.00000000	          0.00000000	          0.00000000	          0.00000000	          0.00000000	        -22.04123314	        670.61875641	        -46.11865565	          0.12867730	          0.00000000	          0.08012176	          0.00000000	          0.00000000	          0.00000000	          0.00000000	          0.12639704	          0.00000000	
          1.26200000	          0.00000000	          0.00000000	          0.00000000	          0.00000000	          0.00000000	          0.00000000	        -21.58246821	        669.05747317	        -46.08032398	          0.12922444	          0.00000000	          0.08020012	          0.00000000	          0.00000000	          0.00000000	          0.00000000	          0.15310377	          0.00000000	
